<svg width="1440" height="275" viewBox="0 0 1440 275" fill="none" xmlns="http://www.w3.org/2000/svg">
<g opacity="0.2">
<path d="M318.997 270.251C407.075 270.251 478.476 210.816 478.476 137.5C478.476 64.1837 407.075 4.74902 318.997 4.74902C230.919 4.74902 159.517 64.1837 159.517 137.5C159.517 210.816 230.919 270.251 318.997 270.251Z" stroke="white" stroke-width="3" stroke-miterlimit="10"/>
<path d="M318.997 4.71777L318.997 270.251" stroke="white" stroke-width="3" stroke-miterlimit="10"/>
<path d="M0 4.71777C88.0708 4.71777 159.48 64.1585 159.48 137.469C159.48 210.779 88.0708 270.251 0 270.251" stroke="white" stroke-width="3" stroke-miterlimit="10"/>
<path d="M970.63 4.71777L651.633 4.71777" stroke="white" stroke-width="3" stroke-miterlimit="10"/>
<path d="M970.63 270.252L651.633 270.252" stroke="white" stroke-width="3" stroke-miterlimit="10"/>
<path d="M976.298 0C976.298 75.9206 902.357 137.5 811.113 137.5C719.868 137.5 645.928 75.9206 645.928 0" stroke="white" stroke-width="3" stroke-miterlimit="10"/>
<path d="M645.928 275C645.928 199.079 719.868 137.5 811.113 137.5C902.357 137.5 976.298 199.048 976.298 275" stroke="white" stroke-width="3" stroke-miterlimit="10"/>
<path d="M645.929 0.0947266L645.929 274.592" stroke="white" stroke-width="3" stroke-miterlimit="10"/>
<path d="M645.928 270.251C557.858 270.251 486.449 210.811 486.449 137.5C486.449 64.19 557.858 4.71777 645.928 4.71777" stroke="white" stroke-width="3" stroke-miterlimit="10"/>
<path d="M1295.29 0.37793V274.906" stroke="white" stroke-width="3" stroke-miterlimit="10"/>
<path d="M1295.29 270.567C1207.19 270.567 1135.78 211.126 1135.78 137.784C1135.78 64.4425 1207.22 5.0332 1295.29 5.0332" stroke="white" stroke-width="3" stroke-miterlimit="10"/>
<path d="M976.298 274.906L976.298 0" stroke="white" stroke-width="3" stroke-miterlimit="10"/>
<path d="M976.298 4.71777C1064.41 4.71777 1135.82 64.1585 1135.82 137.5C1135.82 210.842 1064.41 270.283 976.298 270.283" stroke="white" stroke-width="3" stroke-miterlimit="10"/>
<path d="M1295.29 0V275" stroke="white" stroke-width="3" stroke-miterlimit="10"/>
<path d="M1614.29 4.71777L1295.29 4.71777" stroke="white" stroke-width="3" stroke-miterlimit="10"/>
<path d="M1614.29 270.252L1295.29 270.252" stroke="white" stroke-width="3" stroke-miterlimit="10"/>
<path d="M1454.81 273.868C1454.81 200.904 1383.78 141.777 1296.13 141.777V141.746C1383.78 141.746 1454.81 82.6196 1454.81 9.65527C1454.81 82.6196 1525.84 141.746 1613.5 141.746V141.777C1525.84 141.777 1454.81 200.904 1454.81 273.868Z" stroke="white" stroke-width="3" stroke-miterlimit="10"/>
</g>
</svg>
