<svg width="79" height="79" viewBox="0 0 79 79" fill="none" xmlns="http://www.w3.org/2000/svg">
<path d="M77.1851 51.4246H53.87V46.9217V29.2887C53.87 28.2925 53.0523 27.4756 52.055 27.4756H26.925C25.9278 27.4756 25.1101 28.2925 25.1101 29.2887V45.1086H1.81495C0.817723 45.1086 0 45.9255 0 46.9217V77.1868C0 78.183 0.817723 78.9999 1.81495 78.9999H77.1851C78.1823 78.9999 79 78.183 79 77.1868V53.2378C79 52.2216 78.1823 51.4246 77.1851 51.4246ZM28.7599 31.0819H50.26V46.9018V53.2178V75.3538H28.7599V46.9217V31.0819ZM3.62989 48.7349H25.13V75.3737H3.62989V48.7349ZM75.3701 75.3737H53.87V55.0509H75.3701V75.3737Z" fill="#969696"/>
<path d="M28.4609 8.00958C28.3213 8.42799 28.441 8.88625 28.7601 9.20504L33.2875 13.6083L32.2105 19.8446C32.1307 20.283 32.3102 20.7213 32.6692 20.9803C33.0282 21.2393 33.5069 21.2792 33.9058 21.06L39.5102 18.1112L45.1146 21.06C45.2941 21.1397 45.4735 21.1995 45.653 21.1995C45.8924 21.1995 46.1317 21.1198 46.3312 20.9803C46.6902 20.7213 46.8697 20.283 46.7899 19.8446L45.7129 13.6083L50.2403 9.20504C50.5594 8.88625 50.6791 8.42799 50.5394 8.00958C50.3998 7.59117 50.0408 7.27238 49.6021 7.21261L43.3395 6.29609L40.5473 0.637579C40.3478 0.259016 39.9489 0 39.5102 0C39.0714 0 38.6525 0.259016 38.473 0.657503L35.6808 6.31602L29.4183 7.23253C28.9595 7.29231 28.6005 7.59117 28.4609 8.00958ZM36.5983 8.52762C36.9772 8.46784 37.3163 8.22875 37.4758 7.89004L39.5102 3.78562L41.5245 7.89004C41.704 8.22875 42.0232 8.46784 42.4021 8.52762L46.9295 9.18512L43.6586 12.373C43.3794 12.632 43.2597 13.0305 43.3195 13.4091L44.0974 17.912L40.0487 15.7801C39.7096 15.6008 39.3107 15.6008 38.9717 15.7801L34.903 17.912L35.6808 13.4091C35.7407 13.0305 35.621 12.652 35.3418 12.373L32.0709 9.18512L36.5983 8.52762Z" fill="#969696"/>
</svg>
