<svg width="101" height="38" viewBox="0 0 101 38" fill="none" xmlns="http://www.w3.org/2000/svg">
<path d="M51.8947 6.49042C53.7776 6.46998 55.3756 8.12614 55.3477 10.1007C55.3477 10.8192 55.1633 11.4735 54.7973 12.0548C54.4369 12.6302 53.9536 13.0713 53.3558 13.3634L55.3477 16.0419H51.5567L49.8385 13.711H46.6537V16.0419H43.0918V6.49042H51.8947ZM46.6537 9.28283V10.9098H50.9951C51.213 10.9098 51.3946 10.8309 51.5455 10.6761C51.7019 10.5125 51.7774 10.3198 51.7774 10.1007C51.7774 9.64502 51.4309 9.28283 50.9951 9.28283H46.6537Z" fill="black"/>
<path d="M60.5184 6.49902H64.7536L69.6538 16.0505H65.6448L64.9241 14.4147H60.3508L59.63 16.0505H55.6211L60.5184 6.49902ZM61.3845 12.0838H63.8932L62.6416 9.26222L61.3845 12.0838Z" fill="black"/>
<path d="M78.0575 6.49944C80.5662 6.46439 82.4268 8.66676 82.4073 11.2752C82.4268 13.8689 80.5662 16.0859 78.0575 16.0509H69.9307V6.49944H78.0575ZM77.3926 9.52552H73.4926V13.0219H77.3926C78.3173 13.0219 78.8397 12.2332 78.8397 11.2752C78.8397 10.3083 78.3145 9.52552 77.3926 9.52552Z" fill="black"/>
<path d="M87.0248 6.48438V16.0358H83.4629V6.48438H87.0248Z" fill="black"/>
<path d="M100.544 10.9098V11.605C100.558 15.2153 97.745 16.2581 94.3116 16.2668C90.8726 16.261 88.0593 15.2153 88.0733 11.605V10.9098C88.0593 7.29374 90.8726 6.25389 94.3116 6.24805C97.7506 6.25097 100.544 7.3025 100.544 10.9098ZM96.9823 11.1377C97.0019 9.58083 95.7671 9.2975 94.3116 9.27705C92.8505 9.2975 91.6129 9.58375 91.6324 11.1377V11.3714C91.6129 12.9341 92.8477 13.2203 94.3116 13.2407C95.7671 13.2203 97.0019 12.9341 96.9823 11.3714V11.1377Z" fill="black"/>
<path d="M49.498 33.4064V23.6446H43.1592V19.1113H61.1645V23.6417H54.8256V33.4064H49.498Z" fill="black"/>
<path d="M81.0776 25.7193V26.7621C81.0972 32.1658 76.8871 33.7285 71.7495 33.7402C66.6007 33.7285 62.3907 32.1658 62.4102 26.7621V25.7193C62.3907 20.3068 66.6007 18.7529 71.7495 18.7412C76.8955 18.7412 81.0776 20.3156 81.0776 25.7193ZM75.7445 26.0581C75.7752 23.7302 73.923 23.3037 71.7467 23.2716C69.5593 23.3037 67.707 23.7302 67.7378 26.0581V26.4086C67.707 28.7483 69.5593 29.1748 71.7467 29.2069C73.923 29.1748 75.7752 28.7483 75.7445 26.4086V26.0581Z" fill="black"/>
<path d="M95.4095 19.1116C98.2283 19.0795 100.617 21.5594 100.578 24.5154C100.617 27.4626 98.2283 29.96 95.4095 29.9191H87.5677V33.4067H82.2373V19.1116H95.4095ZM94.0769 25.7275C94.3926 25.7275 94.6664 25.6107 94.8899 25.377C95.1246 25.1317 95.2363 24.8454 95.2363 24.5154C95.2363 24.1736 95.1246 23.8874 94.8899 23.6537C94.6664 23.4083 94.3926 23.2915 94.0769 23.2915H87.5677V25.7275H94.0769Z" fill="black"/>
<path d="M35.0914 13.1177C35.0914 6.37913 29.8673 0.916992 23.4222 0.916992H22.4137H11.7502H3.2295C1.44713 0.916992 0 2.43003 0 4.29359V34.2302C0 36.0937 1.44713 37.6068 3.2295 37.6068H19.0948H22.4137H32.1469C34.3288 37.6068 35.7508 35.2087 34.7813 33.164L30.0405 23.1628C33.0912 20.9662 35.0914 17.2859 35.0914 13.1177ZM7.34738 17.2946C7.34738 18.1943 6.64896 18.9245 5.78851 18.9245C4.92806 18.9245 4.22964 18.1943 4.22964 17.2946V9.71483C4.22964 8.81518 4.92806 8.08495 5.78851 8.08495C6.64896 8.08495 7.34738 8.81518 7.34738 9.71483V17.2946ZM12.4459 14.6775C12.4459 15.5771 11.7474 16.3074 10.887 16.3074C10.0265 16.3074 9.32811 15.5771 9.32811 14.6775V12.332C9.32811 11.4323 10.0265 10.7021 10.887 10.7021C11.7474 10.7021 12.4459 11.4323 12.4459 12.332V14.6775ZM17.5471 27.8041C17.5471 28.7038 16.8487 29.434 15.9882 29.434C15.1278 29.434 14.4294 28.7038 14.4294 27.8041V8.40625C14.4294 7.50661 15.1278 6.77637 15.9882 6.77637C16.8487 6.77637 17.5471 7.50661 17.5471 8.40625V27.8041ZM22.6456 14.6775C22.6456 15.5771 21.9472 16.3074 21.0867 16.3074C20.2263 16.3074 19.5278 15.5771 19.5278 14.6775V12.332C19.5278 11.4323 20.2263 10.7021 21.0867 10.7021C21.9472 10.7021 22.6456 11.4323 22.6456 12.332V14.6775ZM27.7441 17.2946C27.7441 18.1943 27.0456 18.9245 26.1852 18.9245C25.3247 18.9245 24.6263 18.1943 24.6263 17.2946V9.71483C24.6263 8.81518 25.3247 8.08495 26.1852 8.08495C27.0456 8.08495 27.7441 8.81518 27.7441 9.71483V17.2946Z" fill="#FF003C"/>
</svg>
