<svg width="22" height="22" viewBox="0 0 22 22" fill="none" xmlns="http://www.w3.org/2000/svg">
<path d="M11 0C4.92447 0 0 4.92447 0 11C0 17.0755 4.92447 22 11 22C17.0755 22 22 17.0755 22 11C22.0022 4.92447 17.0755 0 11 0ZM16.0454 15.8662C15.8483 16.191 15.4251 16.2917 15.1026 16.0947C12.5183 14.5159 9.26893 14.1598 5.43954 15.0332C5.07003 15.1183 4.70277 14.8854 4.61767 14.5181C4.53257 14.1486 4.76323 13.7814 5.13274 13.6963C9.32268 12.7378 12.9169 13.1498 15.817 14.9235C16.1417 15.1205 16.2425 15.5438 16.0454 15.8662ZM17.3913 12.8721C17.1427 13.2752 16.6142 13.4029 16.2111 13.1543C13.2551 11.3382 8.74715 10.8097 5.24919 11.8734C4.79458 12.01 4.31759 11.7547 4.17875 11.3023C4.04214 10.8477 4.29743 10.3707 4.7498 10.2319C8.74491 9.02036 13.7119 9.60709 17.1069 11.6942C17.5122 11.9406 17.6399 12.4691 17.3913 12.8721ZM17.5077 9.75265C13.9627 7.6476 8.1134 7.45277 4.7274 8.48066C4.18323 8.64638 3.60993 8.33958 3.44422 7.7954C3.2785 7.25122 3.5853 6.67793 4.12948 6.51222C8.01486 5.33204 14.4756 5.56046 18.558 7.98351C19.0462 8.27463 19.2075 8.90615 18.9186 9.39434C18.6274 9.88253 17.9959 10.0438 17.5077 9.75265Z" fill="white"/>
</svg>
