<svg width="27" height="19" viewBox="0 0 27 19" fill="none" xmlns="http://www.w3.org/2000/svg">
<g id="Group 12">
<mask id="mask0_382_627" style="mask-type:alpha" maskUnits="userSpaceOnUse" x="0" y="0" width="27" height="19">
<path id="Clip 11" fill-rule="evenodd" clip-rule="evenodd" d="M0 0.226562H26.3946V18.7613H0V0.226562Z" fill="white"/>
</mask>
<g mask="url(#mask0_382_627)">
<path id="Fill 10" fill-rule="evenodd" clip-rule="evenodd" d="M10.5578 13.4656V5.52234L17.4154 9.49415L10.5578 13.4656ZM25.843 3.12103C25.5396 1.98143 24.645 1.08439 23.5097 0.779988C21.4509 0.226562 13.1974 0.226562 13.1974 0.226562C13.1974 0.226562 4.94342 0.226562 2.88497 0.779988C1.74936 1.08439 0.855134 1.98143 0.551687 3.12103C0 5.18597 0 9.49371 0 9.49371C0 9.49371 0 13.8023 0.551687 15.8668C0.855134 17.006 1.74936 17.9034 2.88497 18.2078C4.94342 18.7613 13.1974 18.7613 13.1974 18.7613C13.1974 18.7613 21.4509 18.7613 23.5097 18.2078C24.645 17.9034 25.5396 17.006 25.843 15.8668C26.3947 13.8023 26.3947 9.49371 26.3947 9.49371C26.3947 9.49371 26.3947 5.18597 25.843 3.12103Z" fill="white"/>
</g>
</g>
</svg>
